<?xml version="1.0" standalone="no"?>
<!DOCTYPE svg PUBLIC "-//W3C//DTD SVG 20010904//EN"
 "http://www.w3.org/TR/2001/REC-SVG-20010904/DTD/svg10.dtd">
<svg version="1.0" xmlns="http://www.w3.org/2000/svg"
 width="1466.000000pt" height="1466.000000pt" viewBox="0 0 1466.000000 1466.000000"
 preserveAspectRatio="xMidYMid meet">
<metadata>
Created by potrace 1.11, written by Peter Selinger 2001-2013
</metadata>
<g transform="translate(0.000000,1466.000000) scale(0.100000,-0.100000)"
fill="#000000" stroke="none">
<path d="M6232 13891 c-95 -93 -138 -123 -207 -148 -94 -34 -235 -93 -260
-110 -28 -19 -47 -17 -41 5 3 9 2 23 -2 29 -8 12 -95 -41 -193 -118 -19 -15
-80 -51 -133 -79 -130 -67 -223 -121 -326 -190 -94 -63 -130 -79 -130 -58 0 7
9 24 20 38 11 14 20 34 19 45 0 19 -1 19 -19 -3 -10 -13 -23 -23 -27 -23 -10
0 -196 -180 -290 -282 -42 -45 -70 -70 -68 -58 2 13 -3 21 -17 25 -29 7 -38 0
-39 -32 0 -15 -4 -36 -9 -47 -7 -16 -9 -11 -9 21 -1 22 2 44 6 48 4 4 7 29 8
57 1 103 -55 17 -70 -107 -10 -92 -17 -109 -71 -164 l-54 -55 0 31 c0 29 54
114 72 114 4 0 8 7 8 15 0 21 -13 19 -43 -9 -14 -13 -27 -20 -29 -14 -7 21
-37 -6 -56 -52 -12 -27 -35 -68 -53 -90 -26 -32 -35 -38 -41 -26 -15 27 -38 6
-38 -33 0 -40 -29 -94 -59 -110 -10 -6 -22 -25 -26 -42 -4 -17 -18 -40 -31
-52 -13 -11 -24 -31 -24 -43 0 -27 -16 -68 -43 -106 -15 -23 -26 -28 -58 -28
-31 0 -39 -4 -39 -18 0 -10 5 -23 12 -30 9 -9 8 -12 -4 -12 -18 0 -30 -23 -22
-45 3 -8 -1 -22 -10 -30 -9 -9 -16 -25 -16 -36 0 -10 -4 -19 -9 -19 -9 0 -35
55 -36 80 -4 42 -7 48 -26 53 -13 3 -22 0 -26 -10 -6 -14 6 -100 23 -167 6
-26 5 -28 -12 -22 -31 12 -102 19 -121 12 -15 -6 -12 -10 17 -24 24 -12 30
-18 18 -20 -9 -2 -25 1 -36 7 -21 11 -65 4 -56 -10 3 -5 -18 -9 -45 -9 -44 0
-51 -3 -51 -20 0 -19 4 -20 57 -14 36 5 54 4 50 -3 -9 -15 38 -78 78 -103 19
-12 35 -26 35 -31 0 -6 5 -7 10 -4 18 11 11 -26 -10 -52 -11 -14 -20 -22 -20
-17 0 5 -40 8 -90 6 -49 -2 -90 -7 -90 -11 0 -5 30 -11 68 -15 73 -7 98 -17
88 -35 -5 -8 -17 -6 -43 4 -41 17 -73 19 -73 5 0 -6 12 -15 27 -21 28 -11 52
-36 53 -57 0 -9 -11 -10 -40 -6 -44 7 -54 -7 -17 -23 17 -8 10 -9 -30 -5 -61
5 -69 -8 -20 -32 32 -15 30 -16 -70 -16 -76 0 -103 -3 -103 -12 0 -10 27 -12
110 -10 73 2 110 0 110 -7 0 -7 -34 -11 -93 -11 -69 0 -98 -4 -113 -15 -17
-14 -13 -15 47 -9 85 8 119 -10 119 -62 0 -19 -3 -33 -7 -33 -27 4 -35 -3 -29
-25 4 -15 1 -26 -7 -29 -9 -3 -9 -9 1 -26 11 -20 11 -21 -6 -10 -29 18 -56 5
-42 -20 19 -36 -2 -61 -71 -86 -105 -36 -189 -83 -183 -100 4 -8 7 -15 8 -15
1 0 45 23 99 50 54 28 105 50 114 50 8 0 -16 -16 -55 -35 -68 -34 -77 -44 -88
-100 -2 -11 -12 -26 -21 -32 -42 -32 -73 -64 -73 -78 0 -18 25 -10 63 22 16
13 37 23 48 23 23 0 24 -6 4 -27 -8 -8 -13 -18 -10 -23 3 -4 -4 -6 -15 -3 -28
7 -26 -16 5 -49 31 -33 31 -36 3 -40 -15 -2 -25 -13 -32 -36 -11 -41 -2 -51
25 -26 22 19 22 19 11 -1 -12 -23 -33 -165 -32 -212 0 -19 -4 -33 -11 -33 -7
0 -9 -10 -6 -28 4 -18 -1 -36 -13 -52 -14 -18 -20 -42 -20 -87 0 -55 -3 -64
-25 -79 -14 -9 -23 -20 -20 -24 3 -5 8 -29 11 -54 4 -38 2 -47 -12 -53 -12 -4
-24 2 -38 20 -12 15 -29 27 -39 27 -27 0 -21 -41 15 -94 20 -32 27 -50 20 -55
-7 -4 -8 -12 -2 -21 6 -8 10 -74 10 -146 0 -124 1 -132 26 -165 20 -27 24 -41
20 -71 -3 -20 -2 -40 4 -43 6 -4 10 -57 10 -126 0 -102 3 -128 23 -177 13 -31
38 -73 55 -92 33 -36 42 -63 18 -54 -7 3 -16 -1 -19 -9 -3 -9 12 -32 39 -59
41 -38 84 -111 84 -140 0 -6 -9 -8 -19 -5 -10 2 -25 0 -32 -5 -11 -7 -6 -15
21 -38 19 -17 40 -30 46 -30 6 0 19 -11 27 -24 15 -23 15 -24 -24 -35 -55 -17
-51 -2 -89 -294 -5 -43 -10 -119 -10 -169 0 -90 1 -93 33 -126 23 -24 27 -31
12 -26 -11 4 -30 15 -43 25 -34 26 -122 35 -158 16 -36 -19 -66 -52 -89 -96
-15 -29 -16 -58 -11 -240 7 -229 20 -499 34 -666 8 -103 36 -257 50 -280 3 -5
10 -77 14 -160 4 -82 12 -195 17 -250 9 -101 43 -270 60 -303 5 -9 21 -53 36
-97 38 -110 77 -185 121 -231 34 -36 38 -47 56 -152 18 -111 32 -153 69 -201
13 -16 19 -40 19 -72 0 -48 1 -49 30 -49 27 0 30 -3 30 -30 0 -16 -5 -50 -12
-75 -11 -41 -10 -47 10 -74 12 -17 22 -43 22 -59 0 -15 5 -33 10 -38 8 -8 8
-19 0 -38 -5 -15 -10 -53 -10 -84 0 -46 4 -60 20 -70 18 -11 20 -23 20 -146 0
-141 4 -166 25 -166 20 0 43 -81 52 -184 4 -45 9 -59 23 -63 10 -3 26 -22 35
-44 10 -21 24 -44 32 -50 7 -6 13 -26 13 -43 0 -49 27 -165 44 -191 10 -15 16
-46 16 -79 0 -31 5 -56 11 -58 6 -2 13 -23 14 -47 3 -40 12 -54 40 -64 6 -2
12 -60 15 -133 l5 -129 23 23 c28 28 32 25 57 -48 10 -30 27 -66 37 -79 10
-13 18 -36 18 -52 0 -15 9 -43 19 -61 11 -18 33 -73 49 -123 35 -106 52 -145
64 -145 4 0 8 -7 8 -16 0 -9 7 -14 18 -13 26 3 54 -11 82 -41 14 -15 34 -30
45 -34 11 -3 25 -16 30 -28 6 -13 17 -22 26 -20 20 3 48 -28 58 -64 6 -21 14
-29 29 -28 15 0 26 -10 37 -33 12 -25 22 -33 37 -31 14 2 26 -8 43 -37 12 -23
36 -55 54 -72 17 -17 31 -39 31 -47 0 -9 6 -16 13 -16 7 0 29 -11 49 -25 30
-20 41 -37 57 -88 38 -123 69 -173 92 -150 7 7 5 14 -6 23 -8 7 -15 17 -15 23
0 6 14 -8 31 -31 17 -24 33 -41 36 -38 7 7 40 -30 59 -66 27 -52 65 -98 81
-98 12 0 13 3 4 13 -11 14 -43 97 -37 97 2 0 20 -25 40 -56 26 -38 42 -54 52
-50 9 3 18 6 20 6 2 0 4 10 4 23 0 21 1 20 24 -8 13 -16 29 -30 36 -30 7 0 35
-47 64 -105 31 -64 58 -106 68 -108 14 -3 16 3 11 32 -7 43 4 46 33 9 19 -24
24 -26 38 -14 14 11 19 10 36 -10 12 -13 30 -43 40 -66 21 -46 33 -53 49 -25
15 26 44 3 53 -43 10 -45 26 -68 44 -61 7 3 22 -7 33 -22 24 -34 35 -26 15 12
-8 16 -12 31 -10 33 2 3 9 -5 16 -16 16 -30 32 -15 25 22 -6 30 -5 31 10 13 8
-11 15 -26 15 -33 0 -7 15 -22 33 -33 34 -21 52 -26 42 -11 -3 5 -1 12 4 16 6
3 15 -4 21 -15 13 -25 35 -26 50 -2 9 16 12 15 31 -8 12 -14 32 -46 45 -72 13
-26 34 -52 45 -59 20 -10 21 -9 15 17 -8 31 0 28 18 -8 12 -23 61 -35 52 -11
-7 16 6 17 21 2 7 -7 19 -8 30 -4 53 23 84 0 176 -139 84 -126 109 -142 115
-76 5 50 17 56 43 21 25 -34 39 -39 39 -14 0 15 2 15 19 -1 12 -11 27 -15 39
-12 24 8 43 -13 81 -93 31 -65 33 -103 4 -79 -13 10 -15 9 -11 -7 3 -15 11
-20 36 -19 23 1 33 -3 37 -17 7 -20 20 -25 29 -10 3 5 -4 20 -15 35 -28 36
-14 33 17 -4 24 -28 99 -59 112 -46 3 4 -4 20 -16 36 -24 33 -27 40 -12 40 6
0 10 -6 10 -14 0 -7 11 -22 25 -32 17 -13 21 -20 12 -26 -9 -6 -8 -8 3 -8 8 0
21 -9 28 -20 7 -11 19 -20 28 -20 14 0 14 -3 4 -16 -11 -13 -10 -16 8 -21 24
-6 30 -23 10 -23 -7 -1 2 -7 20 -15 31 -13 47 -30 18 -19 -8 3 -16 2 -19 -3
-7 -11 38 -63 55 -63 9 0 9 3 0 12 -17 17 -15 28 6 28 14 0 15 2 2 10 -13 9
-13 10 0 10 8 0 22 -5 30 -10 8 -5 11 -10 6 -10 -5 0 1 -11 14 -25 28 -30 37
-31 42 -7 3 14 8 13 32 -11 35 -36 42 -30 21 19 -19 45 -28 80 -17 70 4 -4 23
-37 43 -74 33 -61 39 -67 70 -69 21 -1 39 4 46 14 10 13 15 14 28 3 12 -10 15
-10 15 5 0 14 3 15 15 5 9 -7 18 -11 21 -8 9 10 7 63 -4 98 -10 32 -10 33 3
15 57 -77 83 -106 107 -117 l26 -12 -20 -29 c-33 -45 -11 -44 36 2 35 35 48
42 66 36 19 -6 22 -4 17 9 -4 10 1 21 13 28 11 7 20 18 20 23 0 16 37 16 51
-1 6 -8 18 -14 26 -14 13 0 13 4 -1 25 -10 14 -14 34 -11 44 3 12 -3 30 -18
47 -38 47 -70 104 -57 104 6 0 8 5 4 13 -6 9 -4 9 8 -1 9 -7 31 -44 49 -81 18
-37 44 -75 58 -84 14 -9 38 -26 53 -38 28 -23 52 -19 30 3 -15 15 -15 28 -2
28 6 0 25 -22 42 -50 17 -27 35 -50 39 -50 14 0 11 12 -11 48 -25 41 -25 50 0
27 11 -10 20 -13 20 -7 0 7 7 12 15 12 21 0 19 7 -15 60 -24 37 -28 51 -21 75
8 30 8 30 40 -35 27 -55 80 -120 98 -120 7 0 -2 56 -13 85 -7 17 -6 18 8 7 19
-15 31 -3 17 18 -11 19 -11 30 0 30 5 0 12 -13 16 -29 3 -16 12 -35 19 -40 11
-9 15 -5 19 19 4 16 4 37 0 46 -3 9 0 20 7 24 9 5 14 28 14 61 0 50 0 51 10
21 6 -17 17 -37 24 -44 9 -9 12 -6 12 20 0 45 20 40 22 -5 5 -130 6 -133 22
-133 8 0 17 -6 19 -12 3 -7 6 12 6 43 1 55 2 57 32 63 l30 6 -7 69 -6 70 37 7
c38 7 39 11 23 64 -3 8 -3 12 -1 7 3 -4 9 -5 14 -1 5 3 9 -5 9 -17 0 -12 3
-19 7 -16 3 4 12 2 19 -4 18 -14 54 -2 54 19 1 16 1 16 10 0 6 -9 18 -15 28
-14 14 3 17 12 14 62 l-2 59 14 -32 c8 -18 19 -33 24 -33 23 0 52 54 61 112 4
35 9 53 10 41 0 -12 12 -34 26 -49 14 -15 25 -31 25 -35 0 -5 4 -9 9 -9 4 0 8
21 8 48 0 26 3 63 6 82 3 19 6 71 7 115 0 61 3 76 11 62 6 -10 8 -25 5 -33 -7
-17 20 -74 34 -74 6 0 11 12 11 28 1 16 3 20 6 10 5 -19 20 -23 41 -9 9 5 11
19 5 47 -12 57 -10 146 3 151 6 2 16 -15 23 -37 22 -74 64 -44 80 57 13 88 27
124 43 121 9 -2 15 15 18 53 3 31 11 63 18 71 12 15 52 14 52 -2 0 -12 39 -19
46 -9 3 5 13 8 22 7 12 -2 16 6 17 35 2 55 15 58 15 4 0 -36 4 -47 16 -47 10
0 13 6 9 19 -4 13 2 23 20 35 14 9 33 32 42 51 9 18 24 36 34 38 11 3 22 13
26 24 5 10 17 18 28 18 13 0 21 8 23 23 2 12 10 22 18 22 8 0 17 7 20 15 4 8
15 15 25 15 15 0 19 8 20 33 0 30 1 31 11 9 6 -12 14 -22 18 -22 14 0 49 47
58 80 18 60 41 116 42 100 0 -12 2 -13 9 -1 7 10 11 5 16 -18 11 -50 22 -36
29 37 8 85 24 113 18 32 -3 -40 -1 -60 7 -60 6 0 11 3 12 8 6 96 19 166 33
181 9 9 16 25 16 33 0 9 11 23 25 32 25 16 25 16 25 -14 0 -16 5 -30 10 -30
12 0 16 10 25 63 8 47 25 49 25 2 0 -23 5 -35 14 -35 16 0 26 30 26 78 0 18 7
40 15 48 13 14 15 8 15 -55 0 -38 4 -72 10 -76 14 -9 50 27 50 51 0 17 5 21
20 17 22 -6 22 -4 38 122 10 73 42 167 42 122 0 -12 6 -17 17 -15 13 2 20 18
25 58 13 97 19 120 28 120 6 0 10 -16 10 -35 0 -19 4 -43 9 -53 5 -9 13 -26
17 -37 5 -14 11 6 19 65 7 47 13 74 14 60 1 -14 6 -32 11 -40 8 -13 12 -13 27
3 15 15 18 33 16 115 -1 53 2 113 6 132 9 34 9 33 10 -17 1 -40 5 -53 16 -53
23 0 69 107 66 153 -2 40 17 113 26 103 3 -3 14 -1 24 5 16 8 19 22 19 98 0
80 2 89 25 111 20 19 24 32 23 69 -1 25 3 76 8 112 8 53 16 72 37 90 26 23 27
28 30 149 3 114 6 128 28 161 18 26 24 46 21 70 -12 110 -13 172 -3 182 6 6
11 38 11 70 0 57 1 59 24 53 12 -3 25 -4 28 -1 2 3 -2 37 -10 77 -20 106 -27
218 -13 218 8 0 9 13 5 41 -5 29 -3 43 6 49 10 6 10 15 1 40 -17 50 -15 150 4
150 8 0 15 1 15 3 0 1 -7 24 -15 51 -18 59 -19 80 -4 70 8 -5 10 3 5 27 -3 19
-9 55 -12 82 -6 41 -4 47 10 41 20 -8 20 3 0 52 -11 26 -13 39 -5 42 6 2 11
12 11 22 0 10 18 40 40 65 22 25 41 52 41 58 1 7 1 43 1 82 0 56 5 78 25 112
22 39 24 50 20 140 -2 54 -10 161 -16 238 -14 154 -8 687 9 759 10 46 30 445
30 601 0 185 -33 281 -134 387 -58 61 -94 81 -134 74 l-38 -6 4 210 c3 115 1
225 -2 244 -6 32 -11 36 -61 51 -62 18 -68 31 -34 80 52 77 100 168 95 180 -3
8 8 30 25 51 16 20 29 41 29 46 0 15 -31 21 -43 9 -18 -18 -27 -13 -27 19 0
17 -5 30 -11 30 -13 0 -3 51 11 60 11 7 40 74 40 91 0 6 -7 8 -16 5 -12 -5
-15 -2 -9 11 22 56 45 129 45 146 0 16 -5 18 -30 15 -17 -3 -33 -1 -36 4 -3 4
6 40 20 78 30 82 33 128 10 137 -8 3 -25 -4 -38 -16 -12 -12 -25 -19 -28 -16
-6 6 21 86 45 134 20 39 20 41 8 60 -8 13 -12 13 -28 0 -16 -12 -17 -12 -6 1
6 8 11 20 12 25 0 6 10 31 22 57 21 44 20 86 -1 73 -16 -10 -12 15 11 61 23
44 20 80 -5 71 -13 -5 -13 0 0 41 18 60 18 82 -1 82 -29 0 -39 113 -14 165 28
56 23 99 -8 73 -22 -18 -23 -6 -5 45 13 36 14 49 5 58 -9 9 -16 9 -29 -2 -16
-13 -17 -11 -10 16 4 17 25 65 46 108 53 105 53 160 0 107 -11 -11 -30 -20
-41 -20 -17 0 -20 4 -15 23 3 12 9 58 12 102 5 60 12 86 26 102 24 26 16 45
-16 37 -36 -9 -41 46 -11 111 12 28 25 66 28 85 3 19 8 43 12 53 5 12 2 17
-11 17 -26 1 -84 150 -84 213 0 46 -16 70 -30 47 -5 -9 -14 1 -27 31 -19 43
-19 44 0 81 26 48 18 67 -27 64 l-36 -3 37 46 c21 25 45 52 55 59 22 16 13 41
-12 35 -10 -3 -34 -22 -53 -44 -20 -21 -38 -39 -40 -39 -3 0 -7 15 -10 33 -13
86 -30 154 -42 170 -7 10 -31 21 -52 24 -35 5 -40 10 -67 67 -16 33 -45 84
-66 111 -20 28 -54 76 -74 107 -37 57 -38 58 -37 157 1 55 -3 102 -8 105 -19
12 -43 -21 -43 -58 0 -29 -3 -36 -15 -32 -8 3 -16 6 -18 6 -2 0 -20 21 -40 46
-31 41 -35 54 -35 105 0 73 -19 87 -47 35 -10 -19 -12 -18 -42 11 -29 30 -31
36 -31 107 0 42 -4 76 -9 76 -25 0 -41 -15 -41 -37 l0 -25 -25 23 c-16 16 -25
35 -25 55 0 31 -21 60 -34 47 -14 -15 -138 121 -166 183 -27 58 -50 81 -72 68
-5 -3 -7 -12 -4 -20 6 -15 -54 15 -89 45 -11 9 -38 29 -60 43 -22 14 -86 55
-142 92 -77 49 -106 74 -116 99 -19 45 -74 90 -104 84 -12 -2 -67 11 -121 29
-54 18 -130 38 -168 44 -74 12 -107 19 -195 44 -50 14 -59 22 -96 75 -23 33
-36 62 -30 64 23 7 -7 27 -71 47 -81 25 -253 36 -367 24 -79 -8 -77 -8 87 -15
91 -4 184 -10 205 -14 l38 -8 -30 -7 c-16 -3 -41 -2 -55 3 -14 5 -98 9 -187 9
-132 1 -163 4 -168 16 -4 10 0 12 10 8 11 -4 14 -2 8 7 -4 6 -8 17 -8 22 0 12
-55 8 -70 -5 -11 -9 -227 -50 -233 -45 -2 2 10 11 28 20 26 13 29 19 19 31
-16 20 -22 18 -76 -24 -26 -21 -55 -42 -63 -47 -13 -8 -13 -6 -2 8 14 17 9 37
-10 37 -5 0 -24 -10 -41 -22 -23 -16 -28 -17 -18 -5 19 24 11 28 -29 17 -36
-10 -55 -6 -21 5 21 6 27 20 13 29 -7 4 -56 1 -393 -25 -104 -8 -156 -8 -184
0 -30 8 -41 8 -48 -2 -6 -8 -7 -5 -3 7 7 21 -10 37 -30 29 -8 -3 -23 -20 -34
-38 -14 -22 -30 -34 -50 -37 l-30 -5 25 27 c46 48 26 81 -24 38 -25 -22 -25
-22 -7 -1 l18 22 -42 -1 c-35 0 -48 -7 -88 -47z m60 -33 c-18 -19 -22 -20 -22
-6 0 9 8 21 17 27 27 15 29 3 5 -21z m1301 25 c-7 -2 -19 -2 -25 0 -7 3 -2 5
12 5 14 0 19 -2 13 -5z m-139 -23 c-15 -15 -84 -25 -84 -12 0 10 25 17 75 21
13 1 16 -2 9 -9z m125 -4 c-2 -2 -21 -6 -42 -10 -27 -5 -37 -4 -32 3 3 6 22
11 42 11 20 0 34 -2 32 -4z m520 -5 c15 -9 24 -51 11 -51 -12 0 -37 25 -43 43
-7 19 9 23 32 8z m-1745 -36 c-21 -16 -44 -20 -44 -7 0 15 13 22 39 22 24 0
24 -1 5 -15z m-208 -80 c-23 -17 -36 -19 -36 -6 0 11 18 19 40 20 11 0 10 -3
-4 -14z m-129 -40 c-31 -28 -47 -32 -47 -11 0 7 15 18 33 24 45 14 45 14 14
-13z m-67 -23 c0 -7 -108 -52 -125 -52 -11 1 105 60 117 60 5 0 8 -3 8 -8z
m2553 -67 c70 -21 95 -38 42 -29 -40 7 -125 42 -125 51 0 3 7 2 15 -1 9 -3 39
-13 68 -21z m-2863 -14 c0 -5 -7 -12 -16 -15 -14 -5 -15 -4 -4 9 14 17 20 19
20 6z m3087 -104 c8 -13 -51 22 -85 50 -18 15 -9 12 26 -9 29 -17 56 -36 59
-41z m-4472 -839 c-1 -13 -3 -31 -4 -40 0 -10 -14 -32 -30 -50 l-30 -33 2 35
c1 22 14 50 32 73 17 20 31 37 31 37 1 0 0 -10 -1 -22z m-121 -193 c-9 -14
-18 -25 -21 -25 -5 0 5 18 20 38 17 22 18 13 1 -13z m-394 -552 c14 -14 12
-14 -15 0 -16 8 -37 17 -45 21 -8 3 -1 4 15 0 17 -3 37 -12 45 -21z m-62 -26
c49 -15 55 -24 27 -42 -18 -11 -24 -9 -53 21 -36 38 -35 39 26 21z m75 -42
c-3 -9 -8 -14 -10 -11 -3 3 -2 9 2 15 9 16 15 13 8 -4z m-226 -477 c-3 -8 -6
-5 -6 6 -1 11 2 17 5 13 3 -3 4 -12 1 -19z m6913 -49 c5 -52 -3 -62 -14 -19
-14 49 -10 102 5 63 4 -11 8 -31 9 -44z m-7006 -134 c-4 -8 -8 -15 -10 -15 -2
0 -4 7 -4 15 0 8 4 15 10 15 5 0 7 -7 4 -15z m-79 -154 c-3 -6 -11 -11 -17
-11 -6 0 -6 6 2 15 14 17 26 13 15 -4z m-35 -71 c0 -5 -12 -10 -27 -9 -25 0
-26 1 -8 9 27 12 35 12 35 0z m7197 -1502 c-3 -8 -6 -5 -6 6 -1 11 2 17 5 13
3 -3 4 -12 1 -19z m-7111 -573 c-3 -10 1 -15 12 -15 14 0 15 -2 2 -9 -8 -6
-18 -7 -22 -5 -12 8 -10 44 3 44 6 0 9 -7 5 -15z m5774 -89 c127 -5 215 -14
424 -43 135 -19 190 -23 195 -15 4 6 20 9 36 6 71 -11 162 -37 185 -52 51 -32
179 -168 186 -198 4 -16 11 -34 16 -41 11 -14 16 -163 7 -223 -9 -60 -18 -163
-25 -285 -3 -55 -10 -117 -15 -138 -5 -20 -7 -42 -4 -47 3 -5 1 -11 -5 -15 -6
-4 -8 -10 -6 -14 6 -10 -8 -102 -34 -226 -14 -64 -36 -130 -63 -183 -35 -70
-50 -88 -92 -116 -80 -52 -105 -64 -185 -85 -41 -11 -110 -29 -152 -40 -42
-12 -98 -21 -125 -22 -26 -1 -55 -5 -63 -9 -72 -37 -778 -47 -1006 -14 -141
20 -319 51 -384 68 -30 7 -68 16 -83 20 -63 15 -327 303 -327 356 0 7 -9 25
-20 40 -21 29 -73 136 -76 155 -1 6 -10 31 -21 55 -11 25 -28 65 -37 90 -10
25 -22 54 -27 65 -4 11 -12 40 -17 65 -6 25 -22 90 -36 145 -26 100 -29 116
-45 232 -5 34 -11 65 -14 70 -3 5 3 36 14 68 39 119 152 185 374 220 55 8 125
20 155 25 49 9 155 22 295 36 28 3 156 18 285 33 235 28 360 31 690 17z
m-3588 -42 c54 -8 111 -14 128 -14 16 0 30 -4 30 -10 0 -19 41 -31 137 -40 54
-5 121 -16 150 -23 48 -13 176 -91 207 -126 24 -28 45 -114 51 -206 5 -90 -6
-152 -51 -280 -8 -23 -14 -54 -14 -71 0 -26 -44 -177 -69 -239 -5 -11 -16 -40
-26 -65 -19 -51 -64 -143 -100 -209 -14 -24 -25 -50 -25 -56 0 -7 -7 -18 -15
-25 -7 -6 -28 -36 -44 -65 -27 -48 -70 -96 -131 -149 -27 -22 -169 -69 -188
-61 -8 3 -49 -6 -91 -19 -43 -14 -104 -28 -137 -31 -32 -4 -66 -8 -74 -10 -78
-20 -701 -23 -905 -4 -66 6 -145 13 -175 16 -30 3 -59 9 -65 14 -5 5 -29 9
-53 9 -44 0 -150 23 -180 40 -10 5 -34 12 -55 15 -24 4 -51 19 -76 43 -32 30
-40 46 -45 87 -4 28 -11 64 -17 80 -18 51 -40 128 -49 170 -5 22 -13 58 -20
80 -6 22 -13 65 -16 95 -3 30 -12 87 -21 125 -9 39 -17 81 -18 95 -1 14 -5 34
-8 45 -3 11 -8 37 -12 59 -3 21 -7 42 -10 46 -2 4 -7 32 -11 61 -3 30 -9 79
-12 109 -11 90 8 187 46 243 21 29 35 64 38 89 2 22 5 42 6 43 86 55 109 63
305 100 176 33 246 42 383 51 63 3 117 8 120 11 3 3 232 2 510 -2 355 -4 534
-11 602 -21z m-2427 -583 c3 -5 1 -12 -5 -16 -5 -3 -10 1 -10 9 0 18 6 21 15
7z m-35 -11 c0 -5 -4 -10 -10 -10 -5 0 -10 5 -10 10 0 6 5 10 10 10 6 0 10 -4
10 -10z m233 -54 c4 -10 1 -13 -9 -9 -7 3 -14 9 -14 14 0 14 17 10 23 -5z
m-300 -11 c-3 -9 -8 -14 -10 -11 -3 3 -2 9 2 15 9 16 15 13 8 -4z m6214 -5907
c-3 -8 -6 -5 -6 6 -1 11 2 17 5 13 3 -3 4 -12 1 -19z m-3937 -213 c0 -5 -5 -3
-10 5 -5 8 -10 20 -10 25 0 6 5 3 10 -5 5 -8 10 -19 10 -25z m3620 -121 c0
-32 -23 -104 -33 -104 -8 0 -2 114 8 130 10 16 25 1 25 -26z m-3115 -134 c3
-5 1 -10 -4 -10 -6 0 -11 5 -11 10 0 6 2 10 4 10 3 0 8 -4 11 -10z m2864 -142
l-1 -73 -10 48 c-9 42 -5 97 7 97 3 0 4 -33 4 -72z m-63 -60 c-8 -138 -6 -127
-17 -93 -9 27 -5 105 7 148 11 36 14 14 10 -55z m72 -69 c-3 -8 -7 -3 -11 10
-4 17 -3 21 5 13 5 -5 8 -16 6 -23z m-217 -71 c-3 -21 -6 -26 -9 -15 -3 17 3
47 11 47 2 0 1 -15 -2 -32z m-48 -78 c-9 -10 -20 24 -15 44 6 19 7 18 12 -9 4
-16 5 -32 3 -35z m57 -5 c-6 -15 -13 -25 -17 -22 -3 4 0 21 8 38 16 39 24 24
9 -16z m-1760 -64 c16 -30 12 -36 -10 -16 -21 19 -26 35 -10 35 5 0 14 -9 20
-19z m1484 -41 c4 -31 3 -39 -4 -25 -9 20 -14 82 -6 74 2 -2 7 -24 10 -49z
m-1424 -11 c0 -6 -4 -7 -10 -4 -5 3 -10 11 -10 16 0 6 5 7 10 4 6 -3 10 -11
10 -16z m1517 -56 c-3 -10 -5 -4 -5 12 0 17 2 24 5 18 2 -7 2 -21 0 -30z
m-1487 -6 c0 -5 -4 -5 -10 -2 -5 3 -10 14 -10 23 0 15 2 15 10 2 5 -8 10 -19
10 -23z m950 -9 c0 -4 14 -30 30 -59 17 -28 29 -53 27 -55 -8 -8 -98 137 -91
147 6 10 33 -17 34 -33z m90 -18 c5 0 25 -26 43 -59 19 -32 43 -72 53 -87 14
-23 14 -26 2 -14 -30 28 -118 163 -117 179 1 13 2 12 6 -1 2 -10 8 -18 13 -18z
m-330 -110 c6 -11 8 -20 6 -20 -3 0 -10 9 -16 20 -6 11 -8 20 -6 20 3 0 10 -9
16 -20z m-171 -42 c13 -21 20 -38 17 -38 -8 0 -56 73 -56 84 0 13 12 -1 39
-46z m141 2 c8 -12 22 -32 31 -44 9 -11 22 -32 29 -46 13 -24 12 -24 -6 -10
-35 28 -69 73 -81 109 -20 56 -16 55 27 -9z m-210 9 c15 -28 5 -23 -15 7 -9
15 -12 23 -6 20 6 -4 16 -16 21 -27z m381 -26 c13 -16 12 -17 -3 -4 -17 13
-22 21 -14 21 2 0 10 -8 17 -17z m-353 -28 c-3 -3 -9 2 -12 12 -6 14 -5 15 5
6 7 -7 10 -15 7 -18z m276 -11 c9 -24 7 -28 -9 -14 -17 14 -20 30 -6 30 5 0
12 -7 15 -16z"/>
<path d="M4228 12623 c-22 -26 -30 -43 -21 -43 5 0 17 14 26 30 20 34 18 39
-5 13z"/>
<path d="M5735 13691 c-6 -11 9 -23 19 -14 9 9 7 23 -3 23 -6 0 -12 -4 -16 -9z"/>
<path d="M5106 2061 c10 -10 21 -17 23 -15 6 6 -20 34 -32 34 -6 0 -2 -8 9
-19z"/>
<path d="M8115 860 c-3 -5 -1 -10 4 -10 6 0 11 5 11 10 0 6 -2 10 -4 10 -3 0
-8 -4 -11 -10z"/>
</g>
</svg>
